# AST/ASF file generated using VICON BodyLanguage
# -----------------------------------------------
:version 1.10
:name VICON
:units
  mass 1.0
  length 0.45
  angle deg
:documentation
   .ast/.asf automatically generated from VICON data using
   VICON BodyBuilder and BodyLanguage model FoxedUp or BRILLIANT.MOD
:root
   order TX TY TZ RX RY RZ
   axis XYZ
   position 0 0 0  
   orientation 0 0 0 
:bonedata
  begin
     id 1 
     name lhipjoint
     direction 0.624716 -0.669793 0.401383 
     length 2.38238 
     axis 0 0 0  XYZ
  end
  begin
     id 2 
     name lfemur
     direction 0.34202 -0.939693 0  
     length 6.4574  
     axis 0 0 20  XYZ
    dof rx ry rz
    limits (-160.0 20.0)
           (-70.0 70.0)
           (-60.0 70.0)
  end
  begin
     id 3 
     name ltibia
     direction 0.34202 -0.939693 0   
     length 7.68739   
     axis 0 0 20   XYZ
    dof rx
    limits (-10.0 170.0)
  end
  begin
     id 4 
     name lfoot
     direction 0.0681309 -0.187188 0.979959   
     length 2.46615   
     axis -90 7.62852e-016 20   XYZ
    dof rx rz
    limits (-45.0 90.0)
           (-70.0 20.0)
  end
  begin
     id 5 
     name ltoes
     direction 1.53566e-011 -4.21819e-011 1   
     length 1.2376   
     axis -90 7.62852e-016 20   XYZ
    dof rx
    limits (-90.0 20.0)
  end
  begin
     id 6 
     name rhipjoint
     direction -0.644473 -0.655875 0.393043   
     length 2.43293  
     axis 0 0 0  XYZ 
  end
  begin
     id 7 
     name rfemur
     direction -0.34202 -0.939693 0   
     length 6.7025   
     axis 0 0 -20   XYZ
    dof rx ry rz
    limits (-160.0 20.0)
           (-70.0 70.0)
           (-70.0 60.0)
  end
  begin
     id 8 
     name rtibia
     direction -0.34202 -0.939693 0   
     length 7.80547   
     axis 0 0 -20   XYZ
    dof rx
    limits (-10.0 170.0)
 end
 begin
     id 9 
     name rfoot
     direction -0.0756734 -0.207911 0.975216   
     length 2.40315  
     axis -90 -7.62852e-016 -20   XYZ
    dof rx rz
    limits (-45.0 90.0)
           (-20.0 70.0)
  end
  begin
     id 10 
     name rtoes
     direction -1.5353e-011 -4.21879e-011 1   
     length 1.20477   
     axis -90 -7.62852e-016 -20   XYZ
    dof rx
    limits (-90.0 20.0)
  end
  begin
     id 11 
     name lowerback
     direction 0.0160353 0.987463 -0.157037   
     length 2.18572   
     axis 0 0 0   XYZ
    dof rx ry rz
    limits (-20.0 45.0)
           (-30.0 30.0)
           (-30.0 30.0)
  end
  begin
     id 12 
     name upperback
     direction -0.00499661 0.999756 0.0215076   
     length 2.18016   
     axis 0 0 0   XYZ
    dof rx ry rz
    limits (-20.0 45.0)
           (-30.0 30.0)
           (-30.0 30.0)
  end
  begin
     id 13 
     name thorax
     direction -0.00921346 0.995333 0.0960619   
     length 2.24923   
     axis 0 0 0   XYZ
    dof rx ry rz
    limits (-20.0 45.0)
           (-30.0 30.0)
           (-30.0 30.0)
  end
  begin
     id 14 
     name lowerneck
     direction 0.0274184 0.991181 0.12965   
     length 1.70911   
     axis 0 0 0   XYZ
    dof rx ry rz
    limits (-20.0 45.0)
           (-30.0 30.0)
           (-30.0 30.0)
  end
  begin
     id 15 
     name upperneck
     direction 0.0015627 0.999959 -0.00893559   
     length 1.69312   
     axis 0 0 0   XYZ
    dof rx ry rz
    limits (-20.0 45.0)
           (-30.0 30.0)
           (-30.0 30.0)
  end
  begin
     id 16
     name head
     direction -0.00230242 0.999856 -0.0168327  
     length 1.80241  
     axis 0 0 0   XYZ
    dof rx ry rz
    limits (-20.0 45.0)
           (-30.0 30.0)
           (-30.0 30.0)
  end
  begin
     id 17 
     name lclavicle
     direction 0.955523 0.290741 -0.0494489  
     length 3.84275  
     axis 0 0 0   XYZ
    dof ry rz
    limits (-20.0 10.0)
           (0.0 20.0)
  end
  begin
     id 18 
     name lhumerus
     direction 1 -4.48967e-011 -3.18382e-028   
     length 5.17714   
     axis 180 -30 -90   XYZ
    dof rx ry rz
    limits (-60.0 90.0)
           (-90.0 90.0)
           (-90.0 90.0)
  end
  begin
     id 19
     name lradius
     direction 1 -4.48968e-011 -2.22911e-027   
     length 3.43679   
     axis 180 -30 -90   XYZ
    dof rx
    limits (-10.0 170.0)
  end
  begin
     id 20
     name lwrist
     direction 1 -4.48951e-011 -6.32245e-027   
     length 1.7184   
     axis 3.57107e-015 90 90   XYZ
    dof ry
    limits (-180.0 0.0)
 end
  begin
     id 21 
     name lhand
     direction 1 -4.48924e-011 -1.26431e-026   
     length 0.573117   
     axis 8.06912e-015 90 90   XYZ
    dof rx rz
    limits (-90.0 90.0)
           (-45.0 45.0)
  end
  begin
     id 22 
     name lfingers
     direction 1 -4.49001e-011 -2.52965e-026   
     length 0.462062   
     axis 1.61381e-014 90 90   XYZ
    dof rx
    limits (0.0 90.0)
  end
  begin
     id 23
     name lthumb
     direction 0.707107 -6.35008e-011 0.707107   
     length 0.663431   
     axis -90 45 -1.62303e-014   XYZ
    dof rx rz
    limits (-45.0 45.0)
           (-45.0 45.0)
  end
  begin
     id 24 
     name rclavicle
     direction -0.963917 0.256881 -0.0698287   
     length 3.73057  
     axis 0 0 0   XYZ 
    dof ry rz
    limits (-10.0 20.0)
           (-20.0 0.0)
  end
  begin
     id 25 
     name rhumerus
     direction -1 -4.48962e-011 -2.73982e-027  
     length 5.23908   
     axis 180 30 90   XYZ
    dof rx ry rz
    limits (-90.0 60.0)
           (-90.0 90.0)
           (-90.0 90.0)
  end
  begin
     id 26 
     name rradius
     direction -1 -4.48968e-011 -4.33218e-027   
     length 3.46485   
     axis 180 30 90   XYZ
    dof rx
    limits (-10.0 170.0)
  end
  begin
     id 27 
     name rwrist
     direction -1 -4.48989e-011 -6.32372e-027   
     length 1.73243   
     axis 3.57107e-015 -90 -90   XYZ
    dof ry
    limits (-180.0 0.0)
  end
  begin
     id 28
     name rhand
     direction -1 -4.48948e-011 -1.26448e-026   
     length 0.608752   
     axis 8.06912e-015 -90 -90   XYZ
    dof rx rz
    limits (-90.0 90.0)
           (-45.0 45.0)
  end
  begin
     id 29
     name rfingers
     direction -1 -4.48962e-011 -2.52913e-026   
     length 0.490792   
     axis 1.61381e-014 -90 -90   XYZ
    dof rx
    limits (0.0 90.0)
  end
  begin
     id 30
     name rthumb
     direction -0.707107 -6.34878e-011 0.707107   
     length 0.704682   
     axis -90 -45 1.62303e-014   XYZ
    dof rx rz
    limits (-45.0 45.0)
           (-45.0 45.0)
  end
:hierarchy
  begin
    root lhipjoint rhipjoint lowerback
    lhipjoint lfemur
    lfemur ltibia
    ltibia lfoot
    lfoot ltoes
    rhipjoint rfemur
    rfemur rtibia
    rtibia rfoot
    rfoot rtoes
    lowerback upperback
    upperback thorax
    thorax lowerneck lclavicle rclavicle
    lowerneck upperneck
    upperneck head
    lclavicle lhumerus
    lhumerus lradius
    lradius lwrist
    lwrist lhand lthumb
    lhand lfingers
    rclavicle rhumerus
    rhumerus rradius
    rradius rwrist
    rwrist rhand rthumb
    rhand rfingers
  end

#!OML:ASF G:\JayActor3\Patient Classification 1\Patient 1\Session 6\male.ASF
:FULLY-SPECIFIED
:DEGREES
300
root 41.3996 16.0512 11.872 166.622 -58.3625 -168.368
lowerback 0.190039 -0.347001 5.61855
upperback -1.3222 -0.428656 1.00348
thorax -1.50092 -0.290599 -2.10878
lowerneck 9.84475 -4.81153 0.00816279
upperneck -19.1789 -6.64634 1.99839
head -7.43988 -3.50979 1.28065
rclavicle 4.63665e-014 1.39149e-015
rhumerus 6.11886 15.4289 -66.4608
rradius 69.0009
rwrist -62.8517
rhand 3.42533 -16.189
rfingers 7.12502
rthumb 28.8669 -43.9755
lclavicle 4.63665e-014 1.39149e-015
lhumerus -4.51428 -1.52104 66.1861
lradius 78.3519
lwrist 68.202
lhand -11.1158 20.0927
lfingers 7.12502
lthumb 14.9089 49.5361
rfemur -12.4566 3.02431 35.2942
rtibia 28.8022
rfoot -20.3666 -14.7978
rtoes 7.04255
lfemur -0.703958 3.58682 -8.3026
ltibia 62.9984
lfoot 11.4988 -2.41631
ltoes -8.04474
301
root 41.271 16.0467 11.7707 166.229 -57.9288 -167.942
lowerback 0.256419 -0.25438 5.99069
upperback -1.27029 -0.300893 1.08986
thorax -1.47706 -0.230491 -2.22959
lowerneck 9.86347 -4.75477 -0.00671306
upperneck -19.2412 -6.56911 2.02496
head -7.46298 -3.47537 1.28697
rclavicle -1.24986e-014 -8.54774e-015
rhumerus 6.29026 15.2985 -66.4325
rradius 68.8847
rwrist -62.6791
rhand 3.32653 -16.1241
rfingers 7.12502
rthumb 28.7725 -43.9268
lclavicle -1.24986e-014 -8.54774e-015
lhumerus -4.44031 -1.11121 66.2608
lradius 78.2708
lwrist 68.3752
lhand -11.2278 20.0002
lfingers 7.12502
lthumb 14.8011 49.4517
rfemur -11.5557 2.81726 35.7542
rtibia 28.474
rfoot -20.541 -14.3922
rtoes 7.07429
lfemur -2.70117 3.17526 -8.24165
ltibia 64.7895
lfoot 9.4299 -3.0346
ltoes -8.83144
302
root 41.1435 16.0415 11.668 166.069 -57.4981 -167.76
lowerback 0.315544 -0.151322 6.21296
upperback -1.22685 -0.159869 1.14163
thorax -1.45478 -0.161743 -2.30257
lowerneck 9.87444 -4.69803 -0.00688653
upperneck -19.298 -6.48787 2.05845
head -7.48324 -3.44076 1.29238
rclavicle 7.12892e-014 8.74653e-015
rhumerus 6.44216 15.1445 -66.4312
rradius 68.7666
rwrist -62.5304
rhand 3.2214 -16.0473
rfingers 7.12502
rthumb 28.6721 -43.867
lclavicle 7.12892e-014 8.74653e-015
lhumerus -4.37392 -0.719304 66.3251
lradius 78.1942
lwrist 68.5788
lhand -11.3307 19.9074
lfingers 7.12502
lthumb 14.7019 49.3661
rfemur -10.7292 2.65484 36.0815
rtibia 28.2456
rfoot -20.7667 -14.0117
rtoes 7.09064
lfemur -4.67006 2.7579 -8.32781
ltibia 66.253
lfoot 7.28182 -3.59184
ltoes -9.45642
303
root 41.0171 16.0354 11.564 166.073 -57.0697 -167.748
lowerback 0.368513 -0.0442543 6.32362
upperback -1.19226 -0.013945 1.16953
thorax -1.4366 -0.0892051 -2.33795
lowerneck 9.87264 -4.63883 0.00144259
upperneck -19.3372 -6.40041 2.09519
head -7.49578 -3.40403 1.29603
rclavicle 4.4329e-014 3.24019e-014
rhumerus 6.57981 14.9815 -66.4585
rradius 68.6492
rwrist -62.4143
rhand 3.09974 -15.9637
rfingers 7.12502
rthumb 28.5559 -43.803
lclavicle 4.4329e-014 3.24019e-014
lhumerus -4.31982 -0.33707 66.373
lradius 78.121
lwrist 68.7952
lhand -11.4396 19.8187
lfingers 7.12502
lthumb 14.597 49.2851
rfemur -9.97489 2.53074 36.3141
rtibia 28.1122
rfoot -21.039 -13.6618
rtoes 7.07827
lfemur -6.61485 2.33449 -8.51612
ltibia 67.4098
lfoot 5.08133 -4.05924
ltoes -9.88419
304
root 40.8913 16.028 11.4589 166.198 -56.6515 -167.853
lowerback 0.412812 0.063325 6.35167
upperback -1.16891 0.132187 1.17712
thorax -1.42465 -0.015783 -2.34819
lowerneck 9.85944 -4.57772 0.0149575
upperneck -19.3553 -6.3066 2.14145
head -7.49928 -3.36536 1.30041
rclavicle 2.85753e-014 1.33186e-014
rhumerus 6.69804 14.8102 -66.5164
rradius 68.5346
rwrist -62.3326
rhand 2.95548 -15.8864
rfingers 7.12502
rthumb 28.418 -43.7488
lclavicle 2.85753e-014 1.33186e-014
lhumerus -4.28231 0.0252003 66.398
lradius 78.0543
lwrist 69.0069
lhand -11.5611 19.7187
lfingers 7.12502
lthumb 14.4799 49.1935
rfemur -9.28379 2.4314 36.4757
rtibia 28.0556
rfoot -21.351 -13.3399
rtoes 7.02329
lfemur -8.54158 1.90224 -8.77756
ltibia 68.2848
lfoot 2.88615 -4.40545
ltoes -10.2694
305
root 40.7653 16.0191 11.3528 166.394 -56.2407 -168.022
lowerback 0.44682 0.168851 6.33249
upperback -1.15738 0.275044 1.17261
thorax -1.41937 0.0562159 -2.34451
lowerneck 9.8396 -4.51359 0.022959
upperneck -19.3509 -6.20613 2.19927
head -7.49371 -3.3239 1.30803
rclavicle 4.1049e-014 6.36111e-015
rhumerus 6.79431 14.6382 -66.6045
rradius 68.4263
rwrist -62.2846
rhand 2.78865 -15.8136
rfingers 7.12502
rthumb 28.2586 -43.7025
lclavicle 4.1049e-014 6.36111e-015
lhumerus -4.2653 0.369405 66.403
lradius 77.9921
lwrist 69.1852
lhand -11.7012 19.608
lfingers 7.12502
lthumb 14.345 49.0924
rfemur -8.63775 2.33014 36.5889
rtibia 28.0504
rfoot -21.6932 -13.0168
rtoes 6.96892
lfemur -10.4356 1.45766 -9.08212
ltibia 68.9024
lfoot 0.740888 -4.58025
ltoes -10.7007
306
root 40.6383 16.0082 11.2459 166.58 -55.8315 -168.169
lowerback 0.465772 0.269671 6.32594
upperback -1.15061 0.410622 1.1676
thorax -1.41118 0.124357 -2.34822
lowerneck 9.81501 -4.44781 0.0242883
upperneck -19.3265 -6.102 2.26501
head -7.48034 -3.28066 1.31829
rclavicle -2.09966e-014 -5.96354e-016
rhumerus 6.87484 14.4669 -66.7193
rradius 68.322
rwrist -62.2587
rhand 2.60616 -15.7557
rfingers 7.12502
rthumb 28.0842 -43.6733
lclavicle -2.09966e-014 -5.96354e-016
lhumerus -4.26659 0.693729 66.3825
lradius 77.9388
lwrist 69.3179
lhand -11.8668 19.4784
lfingers 7.12502
lthumb 14.1854 48.9741
rfemur -8.01113 2.20097 36.7002
rtibia 28.0696
rfoot -22.012 -12.695
rtoes 6.78069
lfemur -12.2835 1.00221 -9.37264
ltibia 69.2868
lfoot -1.29456 -4.54723
ltoes -11.1292
307
root 40.5098 15.9953 11.1385 166.704 -55.4239 -168.243
lowerback 0.472879 0.36633 6.37249
upperback -1.14219 0.539908 1.16483
thorax -1.39486 0.188884 -2.37904
lowerneck 9.7859 -4.38224 0.0229043
upperneck -19.2975 -5.99647 2.34209
head -7.46431 -3.2376 1.33233
rclavicle 1.0066e-013 -1.19271e-015
rhumerus 6.94443 14.2823 -66.8619
rradius 68.2214
rwrist -62.2447
rhand 2.40927 -15.7108
rfingers 7.12502
rthumb 27.8959 -43.659
lclavicle 1.0066e-013 -1.19271e-015
lhumerus -4.27372 0.992277 66.337
lradius 77.8927
lwrist 69.3944
lhand -12.0569 19.3479
lfingers 7.12502
lthumb 14.0022 48.8563
rfemur -7.38047 2.024 36.8334
rtibia 28.0873
rfoot -22.3202 -12.3524
rtoes 6.54764
lfemur -14.0722 0.533073 -9.61728
ltibia 69.4593
lfoot -3.20655 -4.28984
ltoes -11.9723
308
root 40.379 15.9804 11.0307 166.751 -55.0203 -168.23
lowerback 0.466649 0.455207 6.49188
upperback -1.12929 0.657929 1.16436
thorax -1.36658 0.247251 -2.44774
lowerneck 9.754 -4.31464 0.0152399
upperneck -19.2593 -5.88678 2.43046
head -7.44429 -3.19301 1.35037
rclavicle 1.4884e-013 7.7526e-015
rhumerus 7.00472 14.0915 -67.0317
rradius 68.1246
rwrist -62.2277
rhand 2.21598 -15.6736
rfingers 7.12502
rthumb 27.7111 -43.6518
lclavicle 1.4884e-013 7.7526e-015
lhumerus -4.28666 1.27042 66.2622
lradius 77.8519
lwrist 69.4163
lhand -12.2704 19.2051
lfingers 7.12502
lthumb 13.7964 48.7276
rfemur -6.72749 1.78407 36.9932
rtibia 28.081
rfoot -22.5991 -11.9882
rtoes 6.20751
lfemur -15.7926 0.0450506 -9.80412
ltibia 69.4343
lfoot -4.95288 -3.83406
ltoes -12.7716
309
root 40.2463 15.9635 10.9227 166.717 -54.6215 -168.125
lowerback 0.456264 0.537643 6.68678
upperback -1.11234 0.767139 1.16873
thorax -1.3314 0.300531 -2.55325
lowerneck 9.71549 -4.25147 0.0120482
upperneck -19.2104 -5.78321 2.51385
head -7.41994 -3.15103 1.36621
rclavicle 9.39755e-014 -6.55989e-015
rhumerus 7.06126 13.8924 -67.2198
rradius 68.0311
rwrist -62.2017
rhand 2.01108 -15.6442
rfingers 7.12502
rthumb 27.5152 -43.6537
lclavicle 9.39755e-014 -6.55989e-015
lhumerus -4.2981 1.52784 66.1648
lradius 77.8121
lwrist 69.3909
lhand -12.5003 19.048
lfingers 7.12502
lthumb 13.5748 48.5855
rfemur -6.04558 1.49772 37.1837
rtibia 28.0382
rfoot -22.8563 -11.6249
rtoes 5.75773
lfemur -17.4423 -0.456465 -9.92651
ltibia 69.2238
lfoot -6.53439 -3.20421
ltoes -13.5234
